# xmcd
#
# Track frame offsets: 
#        150
#        18278
#        34960
#        48896
#        71615
#        88140
#        154541
#        171879
#        195301
#        220862
#        246976
#
# Disc length: 3622 seconds
#
# Revision: 0
# Processed by: cddbd v1.5.2PL0 Copyright (c) Steve Scherf et al.
# Submitted via: ExactAudioCopy v1.3
#
DISCID=8d0e240b
DTITLE=Rob Tognoni - Alive!
DYEAR=1900
DGENRE=Blues
TTITLE0=Keep Your Head Above Water
TTITLE1=Voodoo Girl
TTITLE2=Lands Of Cirrus
TTITLE3=Blue Butterfy
TTITLE4=Lost Our Blues In The City Of Rome
TTITLE5=Baby Please Don´t Go
TTITLE6=Jim Beam Blues
TTITLE7=Mr. John Lee
TTITLE8=Shadow Play
TTITLE9=Hey Joe
TTITLE10=Road House Blues
EXTD=
EXTT0=
EXTT1=
EXTT2=
EXTT3=
EXTT4=
EXTT5=
EXTT6=
EXTT7=
EXTT8=
EXTT9=
EXTT10=
PLAYORDER=
